Patient4_TMGait_0pt8_01_right_31_EMG.mot
version=1
nRows=41
nColumns=33
inDegrees=no
endheader
time	1LAddLong	2LGlutMax	3LGlutMed	4LIliopsoas	5LSemiMemb	6LBicFemLong	7LRecFem	8LVastMed	9LVastLat	10LGasMed	11LTibAnt	12lTibPost	13LPeroneusLong	14LSol	15LExtDigLong	16LFlexDigLong	17RAddLong	18RGlutMax	19RGlutMed	20RIliopsoas	21RSemiMemb	22RBicFemLong	23RRecFem	24RVastMed	25RVastLat	26RGasMed	27RTibAnt	28RTibPost	29RPeroneusLong	30RSol	31RExtDigLong	32RFlexDigLong
35.052	0.003204	-0.10086	0.01358	0.014191	0.003357	-0.083466	-0.11612	0.005493	0.049286	-0.015259	-0.47058	-0.030975	0.13168	0.036316	-0.29877	0.01297	-0.06897	0.30792	0.90073	-0.22568	0.24384	0.24078	-0.32989	0.30762	0.020447	-0.11902	-0.022278	-0.29022	0.48065	-0.29755	-0.007935	-0.012665
35.053	0.011749	-0.1738	0.035858	-0.010223	0.009003	-0.077667	0.098724	0.019836	0.016937	0.01358	-0.44144	-0.032043	0.049286	0.087433	-0.18723	0.01358	-0.057678	0.23224	0.77301	-0.1915	0.21927	0.24002	-0.018616	0.27649	-0.038757	-0.083771	0.059814	0.14786	0.33325	-0.047455	-0.007629	-0.006409
35.054	-0.007782	-0.26047	0.049286	-0.005646	0.005341	-0.077362	0.21118	0.011292	-0.015259	0.055542	-0.33478	-0.020447	-0.054626	0.10239	-0.15366	0.010071	-0.030212	0.11749	0.44159	-0.045929	0.11765	-0.10193	0.2359	0.067749	-0.088959	-0.011902	-0.020752	0.26794	0.85281	0.27451	-0.010223	-0.024414
35.055	-0.00351	-0.38483	0.069885	0.017853	0.009613	-0.072174	0.2919	0.021362	-0.045471	0.034637	-0.24399	-0.011749	-0.077972	0.089417	0.12238	0.02655	0.002594	0.034485	0.61523	0.13077	0.004883	-0.41489	0.34561	0.050812	-0.064545	-0.022888	0.023651	0.29617	0.016632	0.36819	-0.006866	-0.027466
35.056	-0.023804	-0.39917	0.17273	0.025787	0.002594	-0.029755	0.30624	0.030518	-0.076141	0.020447	-0.18662	-0.005951	-0.074768	0.076141	0.1648	0.026398	0.014648	-0.040894	0.28336	0.34927	-0.00824	-0.63019	0.49972	-0.040436	-0.060272	-0.03418	-0.019836	0.19943	-0.095367	0.5127	-0.00946	-0.018463
35.057	-0.031281	-0.46585	0.27451	0.032043	0.001526	-0.014343	0.29297	0.016479	-0.10651	0.032806	0.001984	0.00946	-0.12558	0.18585	-0.13428	0.010986	0.032043	-0.031433	-0.010529	0.42389	0.017395	-0.62485	0.87555	-0.035858	-0.082245	0.13855	-0.17059	0.14694	-0.30838	0.86472	-0.006714	-0.009003
35.058	-0.022125	-0.50583	0.13809	0.056305	0.003662	0.010223	0.28885	0.032806	-0.097656	0.050507	0.056915	0.010071	-0.076752	0.20462	0.017548	0.019379	0.027466	-0.027466	-0.48004	0.23712	-0.005798	-0.44723	1.0852	-0.094147	-0.13733	0.16571	-0.07019	0.008545	-0.83771	0.50186	-0.008087	-0.008392
35.059	-0.020599	-0.52551	0.029144	0.046387	-0.001678	0.053864	0.28305	0.030365	-0.094147	0.027161	-0.10483	0.01236	0.010071	0.13718	0.081635	0.016327	0.050964	-0.10452	-0.91507	0.12772	-0.15015	-0.51086	1.1882	-0.1326	-0.16708	0.03067	0.025787	0.013733	-0.46951	0.19608	-0.013428	-0.01297
35.06	-0.040588	-0.46432	0.094299	0.010529	-0.000916	0.055695	0.36209	0.030823	-0.093384	0.018768	-0.14053	0.016632	0.05249	0.076447	0.26642	-0.005951	0.069885	-0.13214	-0.3598	-0.072479	-0.50217	-0.32028	1.0445	-0.085144	-0.13412	0.015717	-0.088348	0.009003	0.65292	0.12695	-0.007782	-0.027466
35.061	-0.041504	-0.43625	0.12543	-0.020142	-0.002136	0.04837	0.38696	0.027771	-0.068054	0.041962	-0.2507	0.020599	-0.01709	0.11856	0.21301	0.02243	0.093994	-0.19226	0.62851	-0.21179	-0.34698	-0.1297	0.99503	-0.081635	-0.056915	0.013428	0.031128	0.023499	-0.33066	-0.12314	-0.006714	-0.015411
35.062	-0.047302	-0.49225	0.18173	-0.028229	-0.002747	0.023346	0.48721	0.028381	-0.068207	0.064545	-0.31708	0.018158	-0.034637	0.13275	0.12161	0.021362	0.087891	-0.14114	0.76721	-0.20447	0.16068	0.083618	0.92911	0.016022	-0.031738	0.015869	0.2359	-0.020905	-1.5233	0.34134	-0.012665	-0.018616
35.063	-0.037384	-0.51575	0.10941	-0.018768	0.00824	0.001221	0.5188	0.028992	-0.051727	0.061188	-0.20844	0.014648	-0.018311	0.09201	-0.023956	0.025177	-0.008545	0.045166	0.71671	-0.053101	0.29663	0.49057	0.74997	0.022736	-0.032043	0.02533	0.26428	-0.052032	-0.46127	0.78934	-0.007019	-0.016479
35.064	-0.010986	-0.51346	0.09964	-0.019379	0.006409	0.009766	0.55893	0.033722	-0.042114	0.057526	0.042267	0.011444	-0.034027	0.061951	-0.04837	0.025177	-0.055389	0.13763	0.25955	0.14343	0.2214	0.41977	0.28732	0.062256	0.011749	0.033569	0.12131	-0.035095	1.1324	0.44144	0.000458	-0.019684
35.065	-0.01297	-0.50476	0.057983	-0.0177	0.001373	0.028381	0.62027	0.021515	-0.018768	0.21744	0.13611	0.019073	-0.080414	0.11719	-0.10696	0.019226	-0.065308	0.099945	-0.54184	0.1358	-0.008545	0.19043	-0.19791	0.029755	0.06546	0.041656	-0.014038	-0.048065	0.72342	-0.13687	-0.006409	-0.013885
35.066	-0.005493	-0.49606	0.022736	-0.027161	0.005035	0.01358	0.58762	0.021973	0.011749	0.36026	0.015259	0.016632	-0.076904	0.10422	-0.10101	0.023804	-0.000916	0.12207	-0.71915	0.085297	0.045776	-0.02182	-0.014801	-0.036163	0.050659	0.041962	-0.23315	-0.16998	2.085	-0.27268	-0.012207	-0.016022
35.067	0.006561	-0.52414	-0.027161	-0.027771	-0.002289	-0.008087	0.48325	0.034943	0.027466	0.45303	-0.00061	0.016022	-0.11292	0.050354	0.20218	0.03067	0.005951	0.14313	-0.71243	0.013733	0.086365	-0.1767	0.31433	-0.021515	0.03418	0.029144	-0.089874	-0.14435	1.0988	-0.20752	-0.008392	-0.003357
35.068	0.010376	-0.48798	-0.11398	-0.009766	0.013885	-0.023651	0.38452	-0.033417	0.034485	0.41626	0.080872	0.018158	-0.12863	0	0.077667	0.030212	-0.020447	0.19745	-0.49911	0.005951	0.066528	-0.35126	0.42206	0.10086	0.072174	0.019836	-0.067749	0.035248	-1.6986	-0.084534	-0.009613	-0.002441
35.069	0.012512	-0.46295	-0.13901	0.010223	0.010376	-0.035706	0.23025	0.032806	0.021057	0.056	0.068512	0.018005	-0.069275	0.000305	-0.065613	0.025177	-0.018005	0.20081	-0.2507	-0.022736	0.13001	-0.73532	0.53131	0.11093	0.10773	0.005798	-0.092468	-0.21744	0.39017	0.047913	-0.006561	-0.019684
35.07	0.010529	-0.39398	-0.12848	0.028839	0.005798	-0.013428	0.14786	0.028992	0.021515	-0.23666	0.15167	0.012207	-0.038757	-0.072174	0.32669	0.02533	-0.018768	0.09613	-0.10346	-0.033722	0.2684	-0.74127	0.62958	0.046387	0.029602	0.020905	-0.15976	-0.13031	0.7991	-0.11581	-0.007935	-0.016174
35.071	0.010986	-0.37048	-0.10254	-0.000763	0.005493	-0.010834	0.12283	0.035553	0.032043	-0.35706	0.12634	0.016022	-0.036469	-0.053253	-0.15732	0.02121	-0.012054	-0.014954	-0.43198	-0.057068	0.020294	-0.50934	0.7692	0.050507	-0.063019	0.028076	0.06897	0.224	-0.34714	-0.22186	-0.005035	-0.014801
35.072	0.001068	-0.34973	-0.1062	-0.021057	0.009003	0.00412	0.25253	0.019989	0.053558	-0.24445	-0.000305	0.019989	0.054626	0.006104	0.11307	0.010529	-0.028229	-0.1207	-0.78232	-0.088806	-0.34912	-0.18646	0.76065	-0.068207	0.058289	-0.004578	0.081177	-0.025024	-0.22568	-0.000763	-0.009766	-0.009155
35.073	-0.004578	-0.31296	-0.10025	-0.023956	0.012817	-0.003052	0.4335	0.019989	0.030212	-0.090637	-0.11566	0.014801	0.050964	0.032501	0.031586	0.007172	0.015564	-0.17838	-0.6395	-0.10254	-0.42038	0.15518	0.737	-0.21164	0.71487	-0.028534	-0.22064	0.018311	0.18097	0.015869	-0.007782	0.00473
35.074	-0.019379	-0.31998	-0.050354	-0.014038	0.001221	-0.003052	0.52765	0.035553	0.038757	0.005798	-0.080872	0.007477	-0.062103	0.028687	0.1738	0.013733	0.043488	-0.1442	-1.255	-0.088959	-0.11566	0.13473	0.68436	-0.18723	0.80917	-0.067902	-0.20294	0.072784	-1.0355	0.015564	-0.009308	0.003204
35.075	-0.027161	-0.30121	-0.000916	-0.018005	0.010681	-0.003357	0.61661	0.026703	0.041046	0.046082	-0.011749	0.011139	-0.09964	0.062103	-0.083923	0.008545	0.02655	-0.080109	-1.2733	-0.080872	0.28748	0.15991	0.59189	-0.054169	0.51788	-0.16464	0.072784	-0.32593	-1.4749	0.12116	-0.009003	0.006104
35.076	-0.029907	-0.31677	0.028229	-0.019073	0.021362	-0.015106	0.72403	0.034485	0.059052	0.066681	0.039063	0.024719	-0.082092	0.069885	0.19104	0.009308	-0.00473	-0.064545	-1.3255	-0.019379	0.34729	0.62592	0.37064	-0.025787	0.17303	-0.10773	0.065308	0.02533	-0.47226	0.16266	-0.012665	0.005798
35.077	-0.019836	-0.30655	0.052032	-0.000916	0.020752	-0.024261	0.72327	0.036774	0.089722	0.021057	0.29465	0.021362	-0.05127	0.071259	0.56	0.003052	-0.031738	-0.028229	-1.362	0.06073	0.28046	0.50903	0.26672	0.088959	-0.088348	-0.085754	-0.052643	0.057983	-0.10681	-0.061646	0	-0.012207
35.078	-0.015411	-0.32044	0.060577	-0.000305	0.011749	-0.031586	0.69153	0.025177	0.086212	-0.000916	0.37003	0.00885	-0.021362	0.10956	0.79865	0.015869	-0.01709	0.003357	-1.1664	0.27008	-0.51254	0.26016	-0.08194	0.2327	-0.37705	0.024567	-0.047302	0.012054	0.00351	-0.025177	-0.008698	-0.010529
35.079	-0.00824	-0.19943	0.086365	-0.002747	0.020294	-0.044861	0.61844	0.022736	0.06958	0.015259	-0.00473	0.010529	-0.022125	0.12573	0.093994	0.010376	-0.070496	0.063019	-0.41931	0.18295	-0.56992	-0.095978	-0.005035	0.44556	-0.69	0.089111	0.013733	-0.022278	0.634	-0.04303	-0.006561	-0.011597
35.08	0.000916	-0.1413	0.12543	0.00351	0.019989	-0.044403	0.59769	0.017853	0.051575	0.019836	-0.25986	0.007172	0.020447	0.15045	-0.46692	0.011292	-0.060272	-0.035553	0.056305	0.009155	-0.19836	-0.4773	0.41245	0.6308	-0.75501	0.11139	0.080872	0.00473	0.6076	0.10147	-0.003662	-0.020905
35.081	-0.00412	0.028839	0.15488	-0.003662	0.02121	-0.043182	0.5394	0.017853	0.023041	0.027618	-0.1088	0.003815	0.051727	0.14954	-0.76843	0.003967	-0.019379	-0.019073	0.30518	-0.083313	0.57617	-0.63995	0.43839	0.58182	-0.53863	0.071716	0.081787	-0.00412	0.70053	0.10025	-0.005798	-0.019226
35.082	0.001526	0.15503	0.14191	0.008545	0.005646	-0.037842	0.62088	0.028687	0.02533	0.028992	-0.13519	-0.011292	0.026703	0.15549	-0.35385	0.006714	-0.015259	-0.068512	-0.28427	-0.048218	0.37689	-0.70236	0.26154	0.354	-0.2742	0.056305	0.003967	-0.038757	0.36041	0.11139	-0.00351	-0.014496
35.083	-0.000916	0.30945	0.15259	0.012665	0.012207	-0.046844	0.4512	0.010529	0.015106	0.055237	-0.038147	-0.002594	-0.00473	0.16968	-0.39551	-0.002594	-0.019226	0.002899	-0.55618	-0.068359	0.11261	-0.11841	-0.099182	0.086823	-0.23544	0.035095	0.039368	-0.03067	-0.76584	0.006104	-0.007324	-0.004272
35.084	0.00061	0.44846	0.16312	-0.00473	0.009766	-0.045013	0.40085	0.013275	-0.005798	0.076599	0.006256	-0.012512	-0.029297	0.095978	-0.51559	0.006866	0.012512	0.02243	-0.36529	-0.024109	0.022583	0.15549	-0.10712	-0.08606	-0.14252	-0.059814	0.14114	-0.029907	-1.4664	-0.21561	-0.009155	-0.001678
35.085	0.005798	0.58777	0.18326	-0.023651	0.00473	-0.061035	0.4248	0.002441	-0.007935	0.083313	0.0177	-0.016022	-0.072937	0.044556	-0.34424	0.010986	-0.011292	-0.021667	-0.45441	0.070953	0.00351	0.08667	-0.12741	-0.24841	-0.1004	-0.004578	0.21576	-0.035095	0.18295	-0.354	-0.001831	0.007019
35.086	0.009613	0.75882	0.20874	-0.028076	0.01709	-0.053253	0.37048	-0.001373	-0.009918	0.084229	-0.010223	-0.009766	-0.08255	-0.016785	0.03067	0.005493	-0.029297	-0.32455	-0.72876	0.023041	-0.024872	0.056	-0.15427	-0.26367	-0.080414	0.051727	0.26535	-0.041809	1.1203	-0.2652	-0.004883	0
35.087	0.005188	0.91354	0.19653	-0.001221	0.014801	-0.039215	0.33371	0.007324	-0.00824	0.085297	0.011444	-0.007629	-0.11047	0.06073	0.5928	0.00473	-0.039978	-0.5748	-0.7547	-0.028839	-0.004578	0.31815	-0.20966	-0.13214	-0.02182	0.026855	0.24048	-0.050354	-1.0249	-0.36972	-0.008087	0.010834
35.088	0.005341	1.0573	0.17578	0.01297	0.007477	-0.050812	0.17899	0.005188	-0.019226	0.061035	0.11932	-0.005798	-0.11887	0.098114	0.53863	0.017395	-0.042725	-0.65155	-0.62454	0.047455	0.094299	0.61951	-0.12772	0.001373	0.023804	0.038605	0.1355	-0.018005	-1.3022	-0.37369	-0.007019	-0.000153
35.089	0.015564	1.2503	0.22919	-0.009613	0.010681	-0.034943	0.06012	0.01709	-0.052948	0.070953	0.021057	-0.003662	-0.085907	0.14633	0.37369	0.018005	-0.003815	-0.71335	-0.62561	0.13763	0.10269	0.31143	-0.053864	0.008087	0.07019	0.03067	-0.057373	-0.012817	1.3483	0.070953	-0.001678	-0.002594
35.09	0.006866	1.2509	0.22461	-0.006866	0.016022	-0.040741	0.095215	0.009308	-0.064392	0.064392	-0.065918	-0.004272	-0.065613	0.18005	0.10666	0.03067	-0.001678	-0.88821	-0.34821	0.14282	0.07431	0.57251	-0.088196	-0.008545	0.090637	0.025635	-0.12573	0.033569	1.4868	0.16449	-0.004883	-0.007019
35.091	0.015106	1.2564	0.16586	0.033722	0.006256	-0.039368	0.22156	0.008545	-0.076447	0.068665	-0.025024	0.007324	-0.03479	0.23468	0.21133	0.032654	-0.01358	-1.035	-0.016632	0.12314	-0.006256	0.56976	-0.31784	-0.019684	0.064087	0.025635	0.14847	-0.007019	0.76782	0.24109	-0.00061	-0.003204
35.092	0.021362	1.2532	0.17044	0.021362	0.010681	-0.037079	0.25528	0.018616	-0.094299	0.06424	0.072784	0.000458	-0.036316	0.20599	0.13214	0.029144	-0.018463	-1.0361	-0.040588	-0.018768	-0.16083	0.19134	-0.40649	-0.007935	0.12558	0.034485	0.28839	-0.010223	0.98053	0.22583	-0.00412	0.006256
